/* XPM */
static char * fruit_xpm[] = {
"32 256 80 1",
" 	c #010101",
".	c #FFCC00",
"+	c #CCFF33",
"@	c #FF9900",
"#	c #FF6600",
"$	c #FFFF33",
"%	c #FFFF00",
"&	c #009900",
"*	c #00EE00",
"=	c #00DD00",
"-	c #00CC00",
";	c #33CC00",
">	c #006600",
",	c #00FF00",
"'	c #00BB00",
")	c #993300",
"!	c #CC6600",
"~	c #996600",
"{	c #339900",
"]	c #008800",
"^	c #33CC33",
"/	c #FFCC33",
"(	c #FFFF99",
"_	c #FFFF66",
":	c #FF9933",
"<	c #FF3300",
"[	c #FFFFCC",
"}	c #FF9999",
"|	c #333333",
"1	c #007700",
"2	c #FFFFFF",
"3	c #66CC33",
"4	c #993333",
"5	c #888888",
"6	c #CCFFCC",
"7	c #FF3333",
"8	c #FF6666",
"9	c #FF0000",
"0	c #EE0000",
"a	c #990000",
"b	c #DD0000",
"c	c #CC0000",
"d	c #CC0099",
"e	c #990099",
"f	c #FF99FF",
"g	c #CC66CC",
"h	c #CC33CC",
"i	c #990066",
"j	c #000000",
"k	c #FFCCCC",
"l	c #330000",
"m	c #440000",
"n	c #990033",
"o	c #663300",
"p	c #660033",
"q	c #880000",
"r	c #660000",
"s	c #AA0000",
"t	c #FF3366",
"u	c #CC3366",
"v	c #FF6633",
"w	c #CC3333",
"x	c #FF9966",
"y	c #FFCCFF",
"z	c #FFCC99",
"A	c #770000",
"B	c #CC6666",
"C	c #EEEEEE",
"D	c #CC0033",
"E	c #220000",
"F	c #FF99CC",
"G	c #550000",
"H	c #993366",
"I	c #FF6699",
"J	c #CC6633",
"K	c #330033",
"L	c #663333",
"M	c #333300",
"N	c #FF0066",
"O	c #BB0000",
"                    ..++++      ",
"                    ..+++++     ",
"                    ...+++++    ",
"                     @@@..+++   ",
"                      @@@@@+++  ",
"                      @@@@@@@++ ",
"                ....++@@##@@@@@@",
"             .......++$####@@@@ ",
"          ........$$++++@##     ",
"      ........$$$$$$+++$$@##    ",
"  .......$$$++$$$$..++$$$@@##   ",
"......$$$$$+++$....++$$$$@@@##  ",
"..++$$++++++......+++$$@++@@@#  ",
"..++$$$.........+++$$$@@++$@@#  ",
"..............+++++$$@.++$..@#  ",
"  ..........+++++$$$@@.++$..@#  ",
"    ......++++++$$$@..+++...@#  ",
"        +++++$$$$@@@.+++$..@##  ",
"........$$$$$$$.@@.++++$$..@#   ",
".........$$$..@@@.+++%$....##   ",
"....$$++.....@..+++++$$...@##   ",
"##..$$+....@@@.++++%$....@@#    ",
" #...@@@@@@..++++++$$....@@#    ",
"  ##@@@@@@.++++++%%....@@##     ",
"   #++++++++++++$......@@##     ",
"   @++++++++++$$.....@@###      ",
"  ..$$+++++++%$.....@@@##       ",
"  ...$$%%%%......@@@@###        ",
"   @............@@@@@#          ",
"    @@.......@@@@@@##           ",
"      @@#@@@@@@####             ",
"         #@@@@@#                ",
"                    &&**=--;    ",
"                   &***=-->>    ",
"                  ==,=-''&&     ",
"                 ====-'''&      ",
"          ))!!)!!=,*=-''        ",
"       !!!!@@!)~&,{@!!!~        ",
"      !!#@@@@@!~&@@@@@!~))      ",
"     !@@.....@@@]@!@@@!!))~     ",
"    !@@......@@{]@@@@@@@!!))    ",
"    !@......@@@^]@@@@@@@@@@)    ",
"   !!........@@@@@!!@@@@@@@!~   ",
"   !!...%%....@@@@@@@@@@@@@!!   ",
"  !!.../%%.......@@@....@@@!!)  ",
"  !@../(__.......@@@....@@@!!)  ",
"  !.../(__%%............:@@@#~  ",
"  !..%%___%%%...........:@@@#!  ",
"  !....__/%%...........@@@@##!  ",
"  !....%%%....@@......@@@@###!  ",
"  !.........@@@@@@@@@@@@@####!  ",
"  !.........@@@@@@@@@@@@@####!  ",
"  !.@.......@@@@@@@@@@@@####@!  ",
"  !.@......@@@@@@@@@@@@###<#@!  ",
"  )........@@@@@@@@@@@###<##@)  ",
"  )#........@@@@@@@@@###<<##!)  ",
"  ~!..@......@@@@@@@####<@@!!   ",
"   ~@.........@@@@@@###<<@@!~   ",
"   ~#..@......@@@@###<<<@@))~   ",
"    ))~@@....@@@@####<@@@@))    ",
"     ~))@@..@@@@@#####@@))~     ",
"      ))!!!@@@@@######!!))      ",
"       ~~!!@@@@#####!!!!~       ",
"          ~)!!!~~~~~)))         ",
"                                ",
"                                ",
"              +++               ",
"             ++++               ",
"          ..+.++++              ",
"         .....+++++             ",
"       ....++..+++++..          ",
"      ..++++++..+++++....       ",
"     ...+%%%%%%.++++++.....     ",
"    ..%%%%%$$$%.+++++++.....    ",
"   ...%%%___$$%..+++++++....    ",
"   ..+%%____$$$...+++%+++....   ",
"  ..++%%$_[$$$$$..+.__%%+++..   ",
"  ..+%%%$$$$$$%%....%%$$%++..   ",
"  ..+%%%$$$$$$%+....%%$$%%+...  ",
"  ..+%%%%%%%%%++....+%%%%%+..@  ",
"  ..+%%%%%%%%+++....+%%%%++..@  ",
"  ..+%%%%%%%+++....@++%%+++..@  ",
"  ..++%%%%%++++....@+++++....@  ",
"  ....+%%%++++%....!+++++...@@  ",
"  ....++++++.....@@!........@@  ",
"  @..............@!!........@@  ",
"   @...........@!!@@.......@@@  ",
"   @@@........@@!!@@}}....@@@@  ",
"    @@@......@!!@|11@@...@@@@   ",
"     @@@@@}}@@!!|{11||@@@@@@@   ",
"      @@!!!!!@|2|{11{||@@@@@    ",
"        !!!!!!|{{333{{||@@      ",
"              3344533{{{        ",
"              33445533{{{       ",
"              3334  633{{{      ",
"               3333 6633{{      ",
"[[}}}}}}}}}}}}}}}}}}}}}}}}}}}}[[",
"[[}}}}}}}}}}}}}}}}}}}}}}}}}}}}[[",
"6677888}}}}}}}}}}}}8888888999966",
"66777888}}}}}}}}}888887799999066",
"66777778888}88888887777799999066",
"669999aa8888888888779999aa990b66",
"660999aa7788888877779999aa990b66",
"660999aa7777887777779999aa900b66",
"==099999997777779999999999000b==",
"==00999999777777999999999900bb==",
"=={099999999aa9999aa99999000b{==",
"=={009999999aa9999aa99990000b{==",
"=={b00999999aa9999aa9990000bb{={",
"{={b0099aa999999999999aa00bbc=={",
"{==cb000aa999999999900aa0bbbc=={",
"{=={b000aa099999990000aa0bbb{=={",
"{=={bbb00000000000000000bbbb==={",
"{=={bbbb000000000000000bbbbc=={{",
"{{=={bbbbb00aa0000aa0bbbbbc{=={{",
" {=={cbbbbbbaa0000aabbbbbbc=={{ ",
" {==={cbbbbbaabbbbaabbbbbc{=={{ ",
" {{=={cbbbbbbbbbbbbbbbbbc{=={{{ ",
" {{==={ccbbbbbbbbbbbbbbc{==={{  ",
"  {{==={ccccbbbbbbbbbcc{==={{{  ",
"  {{{===={{cccccccccc{{===={{{  ",
"   {{{===={{cccccccc{{===={{{   ",
"   {{{======={{{{{{======{{{    ",
"    {{{{==============={{{{     ",
"     {{{{============{{{{{{     ",
"      {{{{{{{{{{{{{{{{{{{       ",
"       {{{{{{{{{{{{{{{{{        ",
"           {{{{{{{{{            ",
"           dde          ~~      ",
"         eeedeee       ~~~      ",
"         ddefgee       !!~      ",
"        dddffggee      ~!~~     ",
"        dddgghhee      ~!~~     ",
"        dddgghhee     ~~!~~~    ",
"        eeeeeeeee     ~~!~aaaaaa",
"        eeeeeeeee    !!!!aaaaaaa",
"         eeeeiie! dee~~~aaa     ",
"          eeeiieeddeee~aaa      ",
"           eeiaeeddeeeeaa       ",
"      edeeeej!!deefgeeee        ",
"     eedeeeej!!ddffggeee        ",
"    ddefggeeejjddgghheee        ",
"    dddfgggeejjddegheeee        ",
"    dddghhheeajeeeeeeeee        ",
"    ddeghheeeaaeeeeeeee         ",
"    eeeeeeeeea~eeeeiiee dee     ",
"    eeeeeeeee!~aeeeiieeedeeee   ",
"     eeeiiiejddejjjjjjdefggee   ",
"      eeiiieeddeeeejjdddfgggee  ",
"   deejja~~ddefgeee~~dddghhhee  ",
" eddeeej~~~ddffggeeaadddghhhee  ",
" eedeeee~aaddgghheeaaeeeeeeeee  ",
"ddffggeeeaaddgghhee  eeeeeeeee  ",
"ddgghheeeaaeeeeeeee   eeeiiie   ",
"ddgghheee  eeeeeeee    eeiii    ",
"ddeghheee  eeeeeeee     eii     ",
"eeeeeeeee  eeeeiie              ",
" eeeeeee     eei                ",
" eeeiiee                        ",
"   eii                          ",
"            &'''''''{{''&&      ",
"             ]']{{''{{{{&&      ",
"              {{{{;;^^{{^^  &&  ",
"              {{{{;;^^{{^^  &&  ",
"            ~~==6633{{33a^^^    ",
"         aaa~~==6633{{{3^a^^    ",
"        aa!!@@^^====6{{{3^a^^^&&",
"       aaa!!@@~^====66{{{3^a^^&&",
"      aaaaaaaa~&^^^a==6{{{^^{{''",
"     aaaaaaaaa~~^^a^==66{{^{{{''",
"    a~@@~~kkkk!!!===;;{{^^{{&&]]",
"   a~~@@~~kkk@!!!!==;;{{^{{{&&]3",
"  aa!!!!~~}}k@!!@@!={{@@]]&&]]''",
" aaa!!!!~~}@@@!!@@!!{{@@]]&&]]''",
" aaaaa!!!!!!!!!!!!~~a=^^&&a^{{']",
" aaaaa!!!!!!!!!!!!~~aa^^&&^a{]]'",
"~~aa!kkk!!kk}}!!kkk@~~!!&&]]]]''",
"~~aa!!kk!!kk}@!!k@@@~~!!~~]]]]''",
"))aa!!@k!!}}k@!!k!!!~~!!~~a   ]'",
"))aa!!@@!!}@@@!!!!!!~~!!~~a    ]",
"aaaaaa~~~~~~~~~~~~~~aaaaaa      ",
"aaaaaa~~~~~~~~~~~~~~aaaaaa      ",
"~~aa!!}}~~!}}!~~}}!!~~~~))      ",
" ~aa!!!}~~!}!!~~}!!!~~~~)       ",
" ~aa!!!!~~!!!!aa!!!!aa))        ",
" ~aa!!!!~~!!!!aa!!!!aa)         ",
"  ~~aaaaaaaaaaaaaaaaaa          ",
"  ~~aaaaaaaaaaaaaaaaa           ",
"   ~~~~~aa!!!!aa~~)             ",
"    ~~~~aa!!!!aa~)              ",
"       ~aa~~~~a                 ",
"        aa~~~                   ",
"                                ",
"                                ",
"       lmmmmmmmmmmmmmmmmm       ",
"      ln4nnaopa4np)4pnaqpm      ",
"     rstu8vu7tuu7ww4u4n4nrp     ",
"    la488}88888t77twwwnn4qpm    ",
"   lawwx}k}8888887uuuuw44nqpp   ",
"  lq4u8kkyz}}88887wwuwww4nnArm  ",
" la)wB}k2Cyk}8888vwtwuuwwDw4nrp ",
"Eqsw8}k[kC[2k88887tvu7uwuwwwwApm",
"r4u8kyy[C22ykF}x888twwuwv77tuwnr",
"GH88kkkykyyCykF}uwtt8tt8xxI}}8un",
"mwBu8uBx}I}}}F}8uwtuvt78xx8IBtun",
"G4ww7wu77v8I}}xJwwwwuuw88887wwwA",
"ma4wwwuu7t888}uwwu4uuuwtv8vww4)r",
" laawwwuuBt888ww4wwwwuu77uuw4prE",
"  rsuwwuu7t888Bw44wwwuwuuwwwarK ",
"   lsnwwwwu77JwH44wHwwuuwwappK  ",
"    ran7wuuwwt7Hn4nwwwwww4prK   ",
"     raw7w7wu7u444n4wwww4ArE    ",
"      rwuuwww7u444n4wwww4pK     ",
"       rnwBwuww4HnnwwwwnpE      ",
"        r4twuuw4Hnnwww)pm       ",
"         r)Jvwwn4444w4pm        ",
"          r4Jwwu44ww44G         ",
"           rnBwwwwwwnG          ",
"            Gu8t7uwaK           ",
"             owuuu4L            ",
"              oHunM             ",
"               Gpm              ",
"                                ",
"                                ",
"                                ",
"                                ",
"                                ",
"                                ",
"                                ",
"                                ",
"                                ",
"                                ",
"                                ",
"                                ",
"                                ",
"              ]==;              ",
"          ]]] =^^]              ",
"            ^^=^^];             ",
"            ]]={{=;             ",
"            ];={{=^^            ",
"             ;=  ;{{;           ",
"            ]]^    {;;          ",
"            ^^{    ;;{          ",
"            ^^{     ;{;         ",
"            ^^;      ;;         ",
"          ;;{{       {{         ",
"        NN;;b      NN{{b        ",
"      bbNNbbOO    bbNbbbOO      ",
"      b}}}bbbbO  bb}}}bbbO      ",
"     NNk[[NNbbO  N}}[kNNbOO     ",
"     NN}[}NNbbO  N}}[}NNbOO     ",
"     bbbNNNNOOs  bbbNNNNOss     ",
"     bbbNNNbOOs  bbbNNNbOss     ",
"     bObbbOOsss  ObbbbOOsss     ",
"      ObbbOOss    bbbbOOss      ",
"       OOssaa      OOsaaa       "};
