/* XPM */
static char * frame_xpm[] = {
"40 40 2 1",
" 	c None",
".	c #FFE400",
"........................................",
"........................................",
"........................................",
"...                                  ...",
"...                                  ...",
"...                                  ...",
"...                                  ...",
"...                                  ...",
"...                                  ...",
"...                                  ...",
"...                                  ...",
"...                                  ...",
"...                                  ...",
"...                                  ...",
"...                                  ...",
"...                                  ...",
"...                                  ...",
"...                                  ...",
"...                                  ...",
"...                                  ...",
"...                                  ...",
"...                                  ...",
"...                                  ...",
"...                                  ...",
"...                                  ...",
"...                                  ...",
"...                                  ...",
"...                                  ...",
"...                                  ...",
"...                                  ...",
"...                                  ...",
"...                                  ...",
"...                                  ...",
"...                                  ...",
"...                                  ...",
"...                                  ...",
"...                                  ...",
"........................................",
"........................................",
"........................................"};
